<svg width="512" height="512" viewBox="0 0 512 512" fill="none" xmlns="http://www.w3.org/2000/svg">
  <!-- Background gradient -->
  <defs>
    <linearGradient id="bgGradient" x1="0%" y1="0%" x2="100%" y2="100%">
      <stop offset="0%" style="stop-color:#3B82F6;stop-opacity:1" />
      <stop offset="100%" style="stop-color:#8B5CF6;stop-opacity:1" />
    </linearGradient>
    <linearGradient id="iconGradient" x1="0%" y1="0%" x2="100%" y2="100%">
      <stop offset="0%" style="stop-color:#FFFFFF;stop-opacity:1" />
      <stop offset="100%" style="stop-color:#F8FAFC;stop-opacity:1" />
    </linearGradient>
  </defs>
  
  <!-- Background -->
  <rect width="512" height="512" rx="128" fill="url(#bgGradient)"/>
  
  <!-- Main icon - Letter F with AI elements -->
  <g transform="translate(128, 128)">
    <!-- Letter F -->
    <path d="M64 64 L64 192 L96 192 L96 144 L144 144 L144 112 L96 112 L96 96 L176 96 L176 64 Z" fill="url(#iconGradient)" stroke="none"/>
    
    <!-- AI Brain icon -->
    <g transform="translate(144, 32)">
      <circle cx="32" cy="32" r="24" fill="url(#iconGradient)" opacity="0.9"/>
      <path d="M20 24 Q32 16 44 24 Q44 32 44 40 Q32 48 20 40 Q20 32 20 24 Z" fill="url(#bgGradient)" opacity="0.7"/>
      <circle cx="26" cy="30" r="2" fill="url(#bgGradient)"/>
      <circle cx="38" cy="30" r="2" fill="url(#bgGradient)"/>
      <circle cx="32" cy="38" r="2" fill="url(#bgGradient)"/>
    </g>
    
    <!-- Sparkle effects -->
    <g opacity="0.8">
      <path d="M48 48 L52 52 L48 56 L44 52 Z" fill="url(#iconGradient)"/>
      <path d="M192 80 L196 84 L192 88 L188 84 Z" fill="url(#iconGradient)"/>
      <path d="M32 176 L36 180 L32 184 L28 180 Z" fill="url(#iconGradient)"/>
    </g>
    
    <!-- Circuit lines (AI theme) -->
    <g stroke="url(#iconGradient)" stroke-width="2" fill="none" opacity="0.6">
      <path d="M80 80 L120 80 L120 120"/>
      <path d="M160 120 L200 120 L200 160"/>
      <circle cx="120" cy="80" r="3" fill="url(#iconGradient)"/>
      <circle cx="120" cy="120" r="3" fill="url(#iconGradient)"/>
      <circle cx="200" cy="120" r="3" fill="url(#iconGradient)"/>
    </g>
  </g>
  
  <!-- Subtle shadow/depth -->
  <rect width="512" height="512" rx="128" fill="none" stroke="rgba(255,255,255,0.1)" stroke-width="2"/>
</svg>